<svg id="logout_cat" xmlns="http://www.w3.org/2000/svg" width="134.07" height="176.17" viewBox="0 0 134.07 176.17">
  <defs>
    <style>
      .cls-1 {
        fill: #ff4da4;
      }
    </style>
  </defs>
  <g>
    <path class="cls-1" d="M984.24,452.8a2.76,2.76,0,0,0-2-.81H895.73a2.88,2.88,0,0,0-.59.07l-.09,0a2.27,2.27,0,0,0-.55.2l-.08,0-.07.06a2.25,2.25,0,0,0-.47.34l-.08.06a3.39,3.39,0,0,0-.41.51l-.07.14a2.91,2.91,0,0,0-.21.48,1.09,1.09,0,0,0-.05.17,2.52,2.52,0,0,0-.09.67V576.3a2.65,2.65,0,0,0,.08.63,1,1,0,0,0,.05.16,3.16,3.16,0,0,0,.16.43l.1.17a2.26,2.26,0,0,0,.26.37l.11.13a3.07,3.07,0,0,0,.47.41h0l46,30.46a2.85,2.85,0,0,0,1.53.46,2.76,2.76,0,0,0,2.76-2.77V579.06h15.75a2.76,2.76,0,0,0,0-5.52H944.53V485.21a2.74,2.74,0,0,0-1.24-2.3l-38.38-25.39h74.61v17.23a2.77,2.77,0,0,0,2.77,2.77h0a2.77,2.77,0,0,0,2.76-2.76v-20A2.8,2.8,0,0,0,984.24,452.8Zm-52.78,73.85,8.22,4.1v28.76l-8.22-4.11Z" transform="translate(-892.97 -451.99)"/>
    <path class="cls-1" d="M1005.28,530.47v-4.15c0-2.07-1-3.11-1-5.18.59-1.17,1.68-2.74,2.71-4.58a53.63,53.63,0,0,1,9.2,3c-2-2-5.33-3.16-8.82-3.71a24,24,0,0,0,1.13-2.46c3.86.07,6.76.27,8.28.8a20.53,20.53,0,0,0-8-1.51,12.51,12.51,0,0,0,.71-4c0-5.18-1-7.25-2.07-9.32,3.11-5.18,1.64-11.58,3.11-14.51,1-2.07,1.45-3.31-2.08-2.07-3,1.07-9.32,3.11-13.46,6.22a15,15,0,0,0-11.4-1c-4.14-6.22-10.36-8.29-11.39-9.32s-2.08-.71-2.08,3.1c0,4.15-.47,13.37-1,15.54-2.07,2.07-3.1,10.23-3.11,16.52A45.43,45.43,0,0,0,953,515.44a76.41,76.41,0,0,1,13-.73,7.78,7.78,0,0,0,1.11,3.52,16.58,16.58,0,0,0-5.81,5.5,33.35,33.35,0,0,1,6.22-4.91c1.69,2.26,4.35,3.41,5.69,5.43,0,3.11-3.11,7.25-3.11,11.4s-1,25.73-1,29c0,4.15-2.07,15.54-2.07,23.83,0,7.44,6.67,17.36,23.75,18.58a20.28,20.28,0,0,1-6.62,5.33c-6.64,3.32-21.4,6.24-30.73,2.85A5.7,5.7,0,1,0,949.46,626a41.19,41.19,0,0,0,14,2.21c9.95,0,20-2.7,25.73-5.57a34,34,0,0,0,15.33-16.31c11.89-2.21,22.52-8.94,22.52-26.09C1027,556.37,1012.53,551.19,1005.28,530.47Zm-15.54,0c-8.29,0-12.43-2.08-15.54-6.22,6.73,2.59,10.88,2.59,16.06,2.59s8.28-1,13.46-3.11C1002.69,526.84,993.88,530.47,989.74,530.47Z" transform="translate(-892.97 -451.99)"/>
  </g>
</svg>
