<svg id="logout" xmlns="http://www.w3.org/2000/svg" viewBox="0 0 37.49 45.19"><defs><style>.cls-1{fill:#fff;}</style></defs><path class="cls-1" d="M316.46,414.32a.8.8,0,0,0,0-.15,1.55,1.55,0,0,0-.06-.23,1,1,0,0,0-.14-.21.48.48,0,0,0-.09-.11s0-.06-.07-.08l-8.36-6.4a1,1,0,1,0-1.21,1.59l6,4.62H299.61a1,1,0,0,0,0,2h13l-6.15,5a1,1,0,0,0-.14,1.4,1,1,0,0,0,.77.38,1,1,0,0,0,.63-.23l8.36-6.75h0a1,1,0,0,0,.37-.76v0Z" transform="translate(-278.97 -397.86)"/><path class="cls-1" d="M304.6,406.85a.8.8,0,0,0,.79-.8v-7.4a.79.79,0,0,0-.79-.79H279.73a.59.59,0,0,0-.23.05l-.07,0,0,0a.83.83,0,0,0-.18.13l0,0a.69.69,0,0,0-.13.2l0,.06a.88.88,0,0,0-.06.28v34.87a.82.82,0,0,0,.09.34l.06.09a.69.69,0,0,0,.16.18s0,0,.05.05l13.21,8.74a.83.83,0,0,0,.43.13.86.86,0,0,0,.38-.1.78.78,0,0,0,.42-.7v-7.94H304.6a.8.8,0,0,0,.79-.79V424a.8.8,0,1,0-1.59,0v8.73h-10V407.39a.82.82,0,0,0-.36-.67l-11-7.28h21.4v6.61A.8.8,0,0,0,304.6,406.85ZM290,419.27l2.35,1.18v8.25L290,427.52Z" transform="translate(-278.97 -397.86)"/></svg>