<svg id="star_small" xmlns="http://www.w3.org/2000/svg" viewBox="0 0 40 40"><defs><style>.cls-1{fill:#ffd900;}</style></defs><path class="cls-1" d="M980.22,534.84a1.46,1.46,0,0,0-1.37-1H965.71l-4.06-13.1a1.43,1.43,0,0,0-1.36-1,1.45,1.45,0,0,0-1.37,1l-4.06,13.1H941.72a1.44,1.44,0,0,0-1.36,1,1.51,1.51,0,0,0,.52,1.67l10.63,8.1-4.06,13.09a1.55,1.55,0,0,0,.52,1.68,1.38,1.38,0,0,0,1.68,0l10.64-8.09,10.63,8.09a1.4,1.4,0,0,0,.84.29,1.38,1.38,0,0,0,.84-.29,1.55,1.55,0,0,0,.52-1.68l-4.06-13.09,10.64-8.1A1.54,1.54,0,0,0,980.22,534.84Z" transform="translate(-940.29 -519.67)"/></svg>