<svg id="star" xmlns="http://www.w3.org/2000/svg" viewBox="0 0 59.48 56.77">
<defs>
<style>.cls-1{width:40px; height:40px; fill:#FFD924;}</style>
</defs>
<path class="cls-1" d="M327.35,413.59a2.13,2.13,0,0,0-2-1.47H305.78l-6-18.59a2.13,2.13,0,0,0-2-1.47,2.15,2.15,0,0,0-2,1.47l-6,18.59H270.11a2.13,2.13,0,0,0-1.25,3.85l15.81,11.49-6,18.59a2.13,2.13,0,0,0,.77,2.38,2.13,2.13,0,0,0,2.51,0l15.81-11.49,15.81,11.49a2.13,2.13,0,0,0,3.28-2.38l-6-18.59L326.58,416A2.11,2.11,0,0,0,327.35,413.59Z" transform="translate(-267.98 -392.06)"/>
</svg>